<svg width="329" height="91" viewBox="0 0 329 91" fill="none" xmlns="http://www.w3.org/2000/svg">
<path d="M96.664 46.532C96.664 48.452 96.244 50.156 95.404 51.644C94.564 53.108 93.424 54.26 91.984 55.1C90.544 55.94 88.924 56.36 87.124 56.36C85.324 56.36 83.704 55.94 82.264 55.1C80.824 54.26 79.672 53.108 78.808 51.644C77.968 50.156 77.548 48.452 77.548 46.532C77.548 44.588 77.968 42.884 78.808 41.42C79.672 39.932 80.824 38.768 82.264 37.928C83.704 37.064 85.324 36.632 87.124 36.632C88.924 36.632 90.544 37.064 91.984 37.928C93.424 38.768 94.564 39.932 95.404 41.42C96.244 42.884 96.664 44.588 96.664 46.532ZM93.064 46.532C93.064 45.212 92.8 44.072 92.272 43.112C91.744 42.128 91.024 41.36 90.112 40.808C89.224 40.232 88.228 39.944 87.124 39.944C86.02 39.944 85.012 40.232 84.1 40.808C83.188 41.36 82.468 42.128 81.94 43.112C81.412 44.072 81.148 45.212 81.148 46.532C81.148 47.804 81.412 48.932 81.94 49.916C82.468 50.9 83.188 51.668 84.1 52.22C85.012 52.772 86.02 53.048 87.124 53.048C88.228 53.048 89.224 52.772 90.112 52.22C91.024 51.668 91.744 50.9 92.272 49.916C92.8 48.932 93.064 47.804 93.064 46.532ZM118.883 46.532C118.883 48.452 118.463 50.156 117.623 51.644C116.783 53.108 115.643 54.26 114.203 55.1C112.763 55.94 111.143 56.36 109.343 56.36C107.543 56.36 105.923 55.94 104.483 55.1C103.043 54.26 101.891 53.108 101.027 51.644C100.187 50.156 99.7668 48.452 99.7668 46.532C99.7668 44.588 100.187 42.884 101.027 41.42C101.891 39.932 103.043 38.768 104.483 37.928C105.923 37.064 107.543 36.632 109.343 36.632C111.143 36.632 112.763 37.064 114.203 37.928C115.643 38.768 116.783 39.932 117.623 41.42C118.463 42.884 118.883 44.588 118.883 46.532ZM115.283 46.532C115.283 45.212 115.019 44.072 114.491 43.112C113.963 42.128 113.243 41.36 112.331 40.808C111.443 40.232 110.447 39.944 109.343 39.944C108.239 39.944 107.231 40.232 106.319 40.808C105.407 41.36 104.687 42.128 104.159 43.112C103.631 44.072 103.367 45.212 103.367 46.532C103.367 47.804 103.631 48.932 104.159 49.916C104.687 50.9 105.407 51.668 106.319 52.22C107.231 52.772 108.239 53.048 109.343 53.048C110.447 53.048 111.443 52.772 112.331 52.22C113.243 51.668 113.963 50.9 114.491 49.916C115.019 48.932 115.283 47.804 115.283 46.532ZM125.046 56C124.542 56 124.11 55.832 123.75 55.496C123.414 55.136 123.246 54.692 123.246 54.164V31.196C123.246 30.668 123.414 30.236 123.75 29.9C124.11 29.54 124.542 29.36 125.046 29.36C125.574 29.36 126.006 29.54 126.342 29.9C126.678 30.236 126.846 30.668 126.846 31.196V54.164C126.846 54.692 126.678 55.136 126.342 55.496C126.006 55.832 125.574 56 125.046 56ZM136.782 36.992C137.238 36.992 137.634 37.184 137.97 37.568C138.306 37.952 138.474 38.336 138.474 38.72C138.474 39.2 138.246 39.644 137.79 40.052L126.522 50.132L126.378 45.992L135.45 37.568C135.834 37.184 136.278 36.992 136.782 36.992ZM137.214 55.964C136.71 55.964 136.278 55.76 135.918 55.352L128.718 47.756L131.454 45.236L138.474 52.832C138.858 53.24 139.05 53.696 139.05 54.2C139.05 54.728 138.834 55.16 138.402 55.496C137.994 55.808 137.598 55.964 137.214 55.964ZM146.416 54.164C146.416 54.692 146.248 55.136 145.912 55.496C145.576 55.832 145.144 56 144.616 56C144.112 56 143.68 55.832 143.32 55.496C142.984 55.136 142.816 54.692 142.816 54.164V38.756C142.816 38.228 142.984 37.796 143.32 37.46C143.68 37.1 144.112 36.92 144.616 36.92C145.144 36.92 145.576 37.1 145.912 37.46C146.248 37.796 146.416 38.228 146.416 38.756V54.164ZM144.58 34.544C143.884 34.544 143.38 34.424 143.068 34.184C142.756 33.92 142.6 33.488 142.6 32.888V32.312C142.6 31.712 142.768 31.292 143.104 31.052C143.44 30.812 143.944 30.692 144.616 30.692C145.336 30.692 145.852 30.824 146.164 31.088C146.476 31.328 146.632 31.736 146.632 32.312V32.888C146.632 33.512 146.464 33.944 146.128 34.184C145.816 34.424 145.3 34.544 144.58 34.544ZM160.078 56.36C158.086 56.36 156.358 55.952 154.894 55.136C153.43 54.296 152.29 53.156 151.474 51.716C150.682 50.252 150.286 48.584 150.286 46.712C150.286 44.6 150.706 42.8 151.546 41.312C152.41 39.8 153.526 38.648 154.894 37.856C156.262 37.04 157.714 36.632 159.25 36.632C160.426 36.632 161.542 36.872 162.598 37.352C163.654 37.808 164.59 38.456 165.406 39.296C166.246 40.112 166.906 41.084 167.386 42.212C167.866 43.316 168.118 44.528 168.142 45.848C168.118 46.328 167.926 46.724 167.566 47.036C167.206 47.348 166.786 47.504 166.306 47.504H152.302L151.438 44.444H164.974L164.29 45.092V44.192C164.242 43.352 163.966 42.62 163.462 41.996C162.958 41.348 162.334 40.856 161.59 40.52C160.846 40.16 160.066 39.98 159.25 39.98C158.53 39.98 157.834 40.1 157.162 40.34C156.514 40.556 155.926 40.916 155.398 41.42C154.894 41.924 154.486 42.596 154.174 43.436C153.886 44.252 153.742 45.272 153.742 46.496C153.742 47.816 154.018 48.968 154.57 49.952C155.122 50.936 155.866 51.704 156.802 52.256C157.738 52.784 158.77 53.048 159.898 53.048C160.786 53.048 161.518 52.964 162.094 52.796C162.67 52.604 163.15 52.376 163.534 52.112C163.918 51.848 164.254 51.596 164.542 51.356C164.902 51.14 165.262 51.032 165.622 51.032C166.054 51.032 166.414 51.188 166.702 51.5C166.99 51.788 167.134 52.136 167.134 52.544C167.134 53.072 166.87 53.552 166.342 53.984C165.694 54.608 164.794 55.16 163.642 55.64C162.514 56.12 161.326 56.36 160.078 56.36ZM191.627 35.48L183.527 54.92C183.383 55.304 183.167 55.604 182.879 55.82C182.591 56.036 182.267 56.144 181.907 56.144C181.379 56.144 180.983 56 180.719 55.712C180.455 55.4 180.311 55.016 180.287 54.56C180.287 54.392 180.323 54.2 180.395 53.984L189.539 31.88C189.707 31.472 189.947 31.16 190.259 30.944C190.595 30.728 190.955 30.632 191.339 30.656C191.699 30.656 192.035 30.764 192.347 30.98C192.659 31.196 192.887 31.496 193.031 31.88L202.067 53.66C202.163 53.9 202.211 54.14 202.211 54.38C202.211 54.908 202.031 55.34 201.671 55.676C201.335 55.988 200.951 56.144 200.519 56.144C200.159 56.144 199.823 56.036 199.511 55.82C199.223 55.58 199.007 55.28 198.863 54.92L190.691 35.588L191.627 35.48ZM184.967 49.808L186.587 46.352H196.775L197.387 49.808H184.967ZM207.129 56C206.601 56 206.169 55.832 205.833 55.496C205.497 55.136 205.329 54.692 205.329 54.164V38.9C205.329 38.372 205.497 37.94 205.833 37.604C206.169 37.244 206.601 37.064 207.129 37.064C207.633 37.064 208.053 37.244 208.389 37.604C208.749 37.94 208.929 38.372 208.929 38.9V42.932L208.569 41.384C208.761 40.712 209.049 40.088 209.433 39.512C209.841 38.936 210.321 38.432 210.873 38C211.425 37.568 212.037 37.232 212.709 36.992C213.405 36.752 214.125 36.632 214.869 36.632C215.493 36.632 216.033 36.8 216.489 37.136C216.945 37.472 217.173 37.892 217.173 38.396C217.173 39.044 217.005 39.524 216.669 39.836C216.333 40.124 215.961 40.268 215.553 40.268C215.193 40.268 214.845 40.196 214.509 40.052C214.173 39.884 213.777 39.8 213.321 39.8C212.817 39.8 212.301 39.932 211.773 40.196C211.245 40.46 210.765 40.856 210.333 41.384C209.901 41.888 209.553 42.488 209.289 43.184C209.049 43.88 208.929 44.66 208.929 45.524V54.164C208.929 54.692 208.749 55.136 208.389 55.496C208.053 55.832 207.633 56 207.129 56ZM220.123 37.28H228.583C229.063 37.28 229.459 37.448 229.771 37.784C230.107 38.096 230.275 38.492 230.275 38.972C230.275 39.428 230.107 39.812 229.771 40.124C229.459 40.436 229.063 40.592 228.583 40.592H220.123C219.643 40.592 219.235 40.436 218.899 40.124C218.587 39.788 218.431 39.392 218.431 38.936C218.431 38.456 218.587 38.06 218.899 37.748C219.235 37.436 219.643 37.28 220.123 37.28ZM223.903 32.6C224.431 32.6 224.863 32.78 225.199 33.14C225.535 33.476 225.703 33.908 225.703 34.436V51.14C225.703 51.572 225.775 51.92 225.919 52.184C226.063 52.448 226.255 52.628 226.495 52.724C226.759 52.82 227.023 52.868 227.287 52.868C227.551 52.868 227.779 52.82 227.971 52.724C228.187 52.628 228.439 52.58 228.727 52.58C229.015 52.58 229.279 52.712 229.519 52.976C229.759 53.24 229.879 53.6 229.879 54.056C229.879 54.632 229.567 55.1 228.943 55.46C228.319 55.82 227.647 56 226.927 56C226.519 56 226.039 55.964 225.487 55.892C224.935 55.82 224.395 55.64 223.867 55.352C223.363 55.064 222.943 54.608 222.607 53.984C222.271 53.336 222.103 52.436 222.103 51.284V34.436C222.103 33.908 222.271 33.476 222.607 33.14C222.967 32.78 223.399 32.6 223.903 32.6ZM233.849 53.048C233.633 52.712 233.537 52.328 233.561 51.896C233.585 51.44 233.837 51.056 234.317 50.744C234.653 50.528 235.001 50.444 235.361 50.492C235.745 50.516 236.105 50.696 236.441 51.032C237.113 51.776 237.857 52.364 238.673 52.796C239.513 53.228 240.521 53.444 241.697 53.444C242.177 53.42 242.669 53.348 243.173 53.228C243.677 53.084 244.109 52.844 244.469 52.508C244.829 52.148 245.009 51.632 245.009 50.96C245.009 50.36 244.817 49.88 244.433 49.52C244.049 49.16 243.545 48.872 242.921 48.656C242.297 48.416 241.625 48.2 240.905 48.008C240.137 47.792 239.357 47.552 238.565 47.288C237.797 47.024 237.101 46.688 236.477 46.28C235.853 45.848 235.337 45.296 234.929 44.624C234.545 43.952 234.353 43.124 234.353 42.14C234.353 41.012 234.665 40.04 235.289 39.224C235.937 38.408 236.765 37.772 237.773 37.316C238.805 36.86 239.921 36.632 241.121 36.632C241.817 36.632 242.549 36.728 243.317 36.92C244.085 37.088 244.829 37.364 245.549 37.748C246.269 38.132 246.893 38.636 247.421 39.26C247.661 39.572 247.793 39.944 247.817 40.376C247.865 40.808 247.673 41.192 247.241 41.528C246.953 41.768 246.605 41.876 246.197 41.852C245.789 41.828 245.453 41.696 245.189 41.456C244.733 40.88 244.145 40.436 243.425 40.124C242.705 39.788 241.889 39.62 240.977 39.62C240.521 39.62 240.041 39.692 239.537 39.836C239.057 39.956 238.649 40.184 238.313 40.52C237.977 40.856 237.809 41.348 237.809 41.996C237.809 42.596 238.001 43.076 238.385 43.436C238.793 43.796 239.321 44.096 239.969 44.336C240.617 44.576 241.325 44.792 242.093 44.984C242.837 45.176 243.569 45.404 244.289 45.668C245.033 45.932 245.693 46.28 246.269 46.712C246.869 47.12 247.349 47.66 247.709 48.332C248.093 48.98 248.285 49.808 248.285 50.816C248.285 51.992 247.937 53 247.241 53.84C246.569 54.656 245.705 55.28 244.649 55.712C243.617 56.144 242.525 56.36 241.373 56.36C240.005 56.36 238.637 56.12 237.269 55.64C235.925 55.136 234.785 54.272 233.849 53.048Z" fill="black"/>
<g filter="url(#filter0_d_29_59)">
<path d="M57.5581 23.0699C54.2455 20.7513 50.4312 19.2497 46.427 18.6877C42.4229 18.1258 38.0412 18.8209 34.2183 20.138L42.5646 44.0608L57.5581 23.0699Z" fill="#F51313"/>
<path d="M46.3575 19.1829C50.1168 19.7105 53.7054 21.0828 56.8548 23.1942L42.7188 42.9848L34.8571 20.451C38.5109 19.2571 42.6154 18.6577 46.3575 19.1829Z" stroke="black" stroke-opacity="0.56"/>
<path d="M34.4502 20.1621C30.6311 21.4902 27.1806 23.4019 24.3808 26.3191C21.581 29.2362 19.5113 32.7746 18.341 36.6449L42.8661 44.0609L34.4502 20.1621Z" fill="#F57013"/>
<path d="M24.7415 26.6653C27.3586 23.9386 30.5672 22.1024 34.1452 20.8013L42.0669 43.2969L18.9691 36.3125C20.139 32.7041 22.1118 29.4052 24.7415 26.6653Z" stroke="black" stroke-opacity="0.56"/>
<mask id="path-6-inside-1_29_59" fill="white">
<path d="M18.4436 36.3134C17.221 40.1675 16.9279 44.2562 17.5883 48.2453C18.2486 52.2344 19.8437 56.0106 22.2431 59.2651L42.866 44.0608L18.4436 36.3134Z"/>
</mask>
<path d="M18.4436 36.3134C17.221 40.1675 16.9279 44.2562 17.5883 48.2453C18.2486 52.2344 19.8437 56.0106 22.2431 59.2651L42.866 44.0608L18.4436 36.3134Z" fill="#F5DC13" stroke="black" stroke-opacity="0.56" stroke-width="2" mask="url(#path-6-inside-1_29_59)"/>
<path d="M22.2111 59.2215C24.6036 62.4811 27.6381 65.8317 31.2496 67.6498C34.8612 69.4679 39.0541 70.7784 43.0975 70.7587L43.0975 43.7077L22.2111 59.2215Z" fill="#4AC638"/>
<path d="M42.5975 44.7019L42.5975 70.2543C38.8099 70.1695 34.8909 68.9231 31.4745 67.2032C28.1143 65.5117 25.2385 62.4329 22.9103 59.325L42.5975 44.7019Z" stroke="black" stroke-opacity="0.56"/>
<path d="M42.6243 70.8367C46.6677 70.8367 51.7323 69.4489 55.335 67.6133C58.9377 65.7776 64.0419 62.1455 66.4186 58.8743L42.866 44.0607L42.6243 70.8367Z" fill="#13A4F5"/>
<path d="M55.108 67.1678C51.7133 68.8975 46.9942 70.2211 43.1289 70.3296L43.3579 44.9608L65.6901 59.0068C64.5382 60.4613 62.8598 61.9887 61.0329 63.3848C59.0312 64.9147 56.8799 66.2649 55.108 67.1678Z" stroke="black" stroke-opacity="0.56"/>
<path d="M66.0794 59.3277C68.4438 56.0477 71.3518 50.8832 72.6089 46.2478C73.8659 41.6124 74.299 34.7422 72.6089 31.3276L42.662 44.0098L66.0794 59.3277Z" fill="#3313F5"/>
<path d="M72.1263 46.1169C70.9385 50.4968 68.2391 55.3862 65.9507 58.646L43.7203 44.1046L72.3535 31.9788C73.0029 33.572 73.2632 35.8505 73.2142 38.32C73.1608 41.0041 72.7438 43.8398 72.1263 46.1169Z" stroke="black" stroke-opacity="0.88"/>
</g>
<defs>
<filter id="filter0_d_29_59" x="17.2443" y="18.4915" width="76.4757" height="72.3452" filterUnits="userSpaceOnUse" color-interpolation-filters="sRGB">
<feFlood flood-opacity="0" result="BackgroundImageFix"/>
<feColorMatrix in="SourceAlpha" type="matrix" values="0 0 0 0 0 0 0 0 0 0 0 0 0 0 0 0 0 0 127 0" result="hardAlpha"/>
<feOffset dx="10" dy="10"/>
<feGaussianBlur stdDeviation="5"/>
<feComposite in2="hardAlpha" operator="out"/>
<feColorMatrix type="matrix" values="0 0 0 0 0 0 0 0 0 0 0 0 0 0 0 0 0 0 0.25 0"/>
<feBlend mode="normal" in2="BackgroundImageFix" result="effect1_dropShadow_29_59"/>
<feBlend mode="normal" in="SourceGraphic" in2="effect1_dropShadow_29_59" result="shape"/>
</filter>
</defs>
</svg>
